<?xml version="1.0" standalone="no"?>
<svg xmlns:xlink="http://www.w3.org/1999/xlink" id="wave" style="transform:rotate(0deg); transition: 0.3s" viewBox="0 0 1440 490" version="1.1" xmlns="http://www.w3.org/2000/svg"><defs><linearGradient id="sw-gradient-0" x1="0" x2="0" y1="1" y2="0"><stop stop-color="rgba(178.393, 243, 62, 0)" offset="0%"/><stop stop-color="rgba(11, 60.747, 255, 1)" offset="100%"/></linearGradient></defs><path style="transform:translate(0, 0px); opacity:1" fill="url(#sw-gradient-0)" d="M0,441L10,367.5C20,294,40,147,60,98C80,49,100,98,120,106.2C140,114,160,82,180,114.3C200,147,220,245,240,269.5C260,294,280,245,300,261.3C320,278,340,359,360,351.2C380,343,400,245,420,204.2C440,163,460,180,480,212.3C500,245,520,294,540,261.3C560,229,580,114,600,57.2C620,0,640,0,660,73.5C680,147,700,294,720,351.2C740,408,760,376,780,375.7C800,376,820,408,840,392C860,376,880,310,900,277.7C920,245,940,245,960,269.5C980,294,1000,343,1020,326.7C1040,310,1060,229,1080,187.8C1100,147,1120,147,1140,147C1160,147,1180,147,1200,179.7C1220,212,1240,278,1260,261.3C1280,245,1300,147,1320,122.5C1340,98,1360,147,1380,155.2C1400,163,1420,131,1430,114.3L1440,98L1440,490L1430,490C1420,490,1400,490,1380,490C1360,490,1340,490,1320,490C1300,490,1280,490,1260,490C1240,490,1220,490,1200,490C1180,490,1160,490,1140,490C1120,490,1100,490,1080,490C1060,490,1040,490,1020,490C1000,490,980,490,960,490C940,490,920,490,900,490C880,490,860,490,840,490C820,490,800,490,780,490C760,490,740,490,720,490C700,490,680,490,660,490C640,490,620,490,600,490C580,490,560,490,540,490C520,490,500,490,480,490C460,490,440,490,420,490C400,490,380,490,360,490C340,490,320,490,300,490C280,490,260,490,240,490C220,490,200,490,180,490C160,490,140,490,120,490C100,490,80,490,60,490C40,490,20,490,10,490L0,490Z"/><defs><linearGradient id="sw-gradient-1" x1="0" x2="0" y1="1" y2="0"><stop stop-color="rgba(62, 74.375, 243, 1)" offset="0%"/><stop stop-color="rgba(11, 159.94, 255, 1)" offset="100%"/></linearGradient></defs><path style="transform:translate(0, 50px); opacity:0.9" fill="url(#sw-gradient-1)" d="M0,343L10,326.7C20,310,40,278,60,236.8C80,196,100,147,120,179.7C140,212,160,327,180,375.7C200,425,220,408,240,359.3C260,310,280,229,300,236.8C320,245,340,343,360,326.7C380,310,400,180,420,163.3C440,147,460,245,480,269.5C500,294,520,245,540,245C560,245,580,294,600,302.2C620,310,640,278,660,277.7C680,278,700,310,720,334.8C740,359,760,376,780,318.5C800,261,820,131,840,138.8C860,147,880,294,900,294C920,294,940,147,960,81.7C980,16,1000,33,1020,57.2C1040,82,1060,114,1080,155.2C1100,196,1120,245,1140,236.8C1160,229,1180,163,1200,114.3C1220,65,1240,33,1260,49C1280,65,1300,131,1320,171.5C1340,212,1360,229,1380,228.7C1400,229,1420,212,1430,204.2L1440,196L1440,490L1430,490C1420,490,1400,490,1380,490C1360,490,1340,490,1320,490C1300,490,1280,490,1260,490C1240,490,1220,490,1200,490C1180,490,1160,490,1140,490C1120,490,1100,490,1080,490C1060,490,1040,490,1020,490C1000,490,980,490,960,490C940,490,920,490,900,490C880,490,860,490,840,490C820,490,800,490,780,490C760,490,740,490,720,490C700,490,680,490,660,490C640,490,620,490,600,490C580,490,560,490,540,490C520,490,500,490,480,490C460,490,440,490,420,490C400,490,380,490,360,490C340,490,320,490,300,490C280,490,260,490,240,490C220,490,200,490,180,490C160,490,140,490,120,490C100,490,80,490,60,490C40,490,20,490,10,490L0,490Z"/></svg>