<svg width="80" height="80" viewBox="0 0 80 80" fill="none" xmlns="http://www.w3.org/2000/svg">
<rect width="80" height="80" rx="5" fill="#C5B559" fill-opacity="0.15"/>
<path d="M26.7989 58.48H55.8389C57.2392 58.48 58.5822 57.9237 59.5724 56.9335C60.5626 55.9434 61.1189 54.6004 61.1189 53.2V24.16C61.1189 23.4598 60.8408 22.7884 60.3457 22.2933C59.8506 21.7982 59.1791 21.52 58.4789 21.52H32.0789C31.3787 21.52 30.7072 21.7982 30.2121 22.2933C29.717 22.7884 29.4389 23.4598 29.4389 24.16V50.56C29.4389 51.2602 29.1608 51.9317 28.6657 52.4268C28.1706 52.9219 27.4991 53.2 26.7989 53.2C26.0987 53.2 25.4272 52.9219 24.9321 52.4268C24.437 51.9317 24.1589 51.2602 24.1589 50.56V38.68C24.1589 37.9798 23.8808 37.3084 23.3857 36.8133C22.8906 36.3182 22.2191 36.04 21.5189 36.04C20.8187 36.04 20.1472 36.3182 19.6521 36.8133C19.157 37.3084 18.8789 37.9798 18.8789 38.68V50.56C18.8789 52.6605 19.7133 54.675 21.1986 56.1603C22.6839 57.6456 24.6984 58.48 26.7989 58.48ZM55.8389 53.2H45.2789V47.92H55.8389V53.2ZM55.8389 42.64H45.2789V37.36H55.8389V42.64ZM34.7189 26.8H55.8389V32.08H34.7189V26.8ZM34.7189 37.36H39.9989V53.2H34.7189V37.36Z" fill="#C5B559"/>
</svg>
